<?xml version="1.0" encoding="UTF-8"?>
<svg id="_Слой_1" data-name="Слой_1" xmlns="http://www.w3.org/2000/svg" version="1.1" viewBox="0 0 1358.93 600">
  <!-- Generator: Adobe Illustrator 29.3.1, SVG Export Plug-In . SVG Version: 2.1.0 Build 151)  -->
  <defs>
    <style>
      .st0 {
        fill: #4db595;
      }

      .st1 {
        fill: #ffff;
      }
    </style>
  </defs>
  <g>
    <polygon class="st0" points="190.28 251.8 139.92 324.3 201.17 387.86 229.12 387.5 190.28 251.8"/>
    <polygon class="st0" points="318.35 251.8 279.51 387.5 307.65 387.85 368.71 324.3 318.35 251.8"/>
    <polygon class="st0" points="307.15 244.85 308.85 238.15 254.33 159.64 199.77 238.15 201.48 244.85 239.72 395.32 208.32 395.32 214.34 401.47 242.89 407.51 251.43 440.36 254.31 440.36 254.31 440.36 257.19 440.36 265.73 407.51 294.34 401.84 300.47 395.32 268.9 395.32 307.15 244.85"/>
  </g>
  <g>
    <polygon class="st1" points="433.62 245.95 418.18 245.95 418.18 387.15 427.49 387.15 433.62 387.15 466.08 387.15 466.08 373.76 433.62 373.76 433.62 245.95"/>
    <path class="st1" d="M528.74,245.95h-23.16c-6.05,0-10.56,1.48-13.51,4.43-2.95,2.95-4.43,7.45-4.43,13.51v105.34c0,6.05,1.48,10.56,4.43,13.51,2.95,2.95,7.45,4.43,13.51,4.43h23.16c6.05,0,10.56-1.48,13.51-4.43,2.95-2.95,4.43-7.45,4.43-13.51v-105.34c0-6.05-1.48-10.56-4.43-13.51-2.95-2.95-7.46-4.43-13.51-4.43ZM531.24,355.14v11.58c0,2.88-.42,4.77-1.25,5.68-.83.91-2.76,1.36-5.79,1.36h-14.08c-2.88,0-4.77-.46-5.68-1.36-.91-.91-1.36-2.8-1.36-5.68v-100.34c0-3.03.45-4.96,1.36-5.79.91-.83,2.8-1.25,5.68-1.25h14.08c3.03,0,4.96.42,5.79,1.25.83.83,1.25,2.76,1.25,5.79v88.76Z"/>
    <polygon class="st1" points="625.9 351.51 597.75 245.95 579.59 245.95 579.59 387.15 593.89 387.15 593.89 277.73 623.17 387.15 640.2 387.15 640.2 245.95 625.9 245.95 625.9 351.51"/>
    <path class="st1" d="M713.07,245.95h-22.02c-6.05,0-10.56,1.48-13.51,4.43-2.95,2.95-4.43,7.45-4.43,13.51v105.56c0,6.05,1.48,10.56,4.43,13.51,2.95,2.95,7.45,4.43,13.51,4.43h22.02c6.05,0,10.56-1.48,13.51-4.43,2.95-2.95,4.43-7.45,4.43-13.51v-53.35h-27.01v13.39h11.35v37.46c0,2.88-.42,4.77-1.25,5.68-.83.91-2.76,1.36-5.79,1.36h-12.49c-2.88,0-4.77-.45-5.68-1.36-.91-.91-1.36-2.8-1.36-5.68v-100.57c0-3.03.45-4.96,1.36-5.79.91-.83,2.8-1.25,5.68-1.25h12.49c3.03,0,4.96.42,5.79,1.25.83.83,1.25,2.76,1.25,5.79v19.07h15.66v-21.57c0-6.05-1.48-10.56-4.43-13.51-2.95-2.95-7.46-4.43-13.51-4.43Z"/>
    <path class="st1" d="M797.52,307.69h-15.44c-2.88,0-4.77-.45-5.68-1.36-.91-.91-1.36-2.8-1.36-5.68v-34.28c0-3.03.45-4.96,1.36-5.79.91-.83,2.8-1.25,5.68-1.25h10.44c3.02,0,4.95.42,5.79,1.25.83.83,1.25,2.76,1.25,5.79v19.3h15.66v-21.79c0-6.05-1.48-10.56-4.43-13.51-2.95-2.95-7.45-4.43-13.51-4.43h-19.98c-6.05,0-10.55,1.48-13.51,4.43-2.95,2.95-4.43,7.45-4.43,13.51v39.27c0,6.05,1.48,10.56,4.43,13.51,2.95,2.95,7.45,4.43,13.51,4.43h15.44c3.03,0,4.96.42,5.79,1.25.83.83,1.25,2.76,1.25,5.79v38.59c0,2.88-.42,4.77-1.25,5.68-.83.91-2.76,1.36-5.79,1.36h-10.22c-2.88,0-4.77-.46-5.68-1.36s-1.36-2.8-1.36-5.68v-19.3h-15.66v21.79c0,6.05,1.48,10.56,4.43,13.51,2.95,2.95,7.45,4.43,13.51,4.43h19.75c6.05,0,10.56-1.48,13.51-4.43,2.95-2.95,4.43-7.45,4.43-13.51v-43.59c0-6.05-1.48-10.56-4.43-13.51-2.95-2.95-7.46-4.43-13.51-4.43Z"/>
    <polygon class="st1" points="923.06 376.25 905.13 245.95 886.51 245.95 868.58 376.25 851.55 245.95 835.89 245.95 856.54 387.15 880.15 387.15 895.82 275.23 911.71 387.15 935.32 387.15 955.98 245.95 940.31 245.95 923.06 376.25"/>
    <path class="st1" d="M1019.77,245.95h-23.16c-6.05,0-10.56,1.48-13.51,4.43-2.95,2.95-4.43,7.45-4.43,13.51v105.34c0,6.05,1.48,10.56,4.43,13.51,2.95,2.95,7.45,4.43,13.51,4.43h23.16c6.05,0,10.56-1.48,13.51-4.43,2.95-2.95,4.43-7.45,4.43-13.51v-105.34c0-6.05-1.48-10.56-4.43-13.51-2.95-2.95-7.46-4.43-13.51-4.43ZM1022.27,355.14v11.58c0,2.88-.42,4.77-1.25,5.68-.83.91-2.76,1.36-5.79,1.36h-14.07c-2.88,0-4.77-.46-5.68-1.36-.91-.91-1.36-2.8-1.36-5.68v-100.34c0-3.03.45-4.96,1.36-5.79.91-.83,2.8-1.25,5.68-1.25h14.07c3.03,0,4.96.42,5.79,1.25.83.83,1.25,2.76,1.25,5.79v88.76Z"/>
    <path class="st1" d="M1125.21,323.7c2.95-2.95,4.43-7.45,4.43-13.51v-46.31c0-6.05-1.48-10.56-4.43-13.51-2.95-2.95-7.46-4.43-13.51-4.43h-41.09v141.2h15.44v-59.02h13.41l20.64,59.02h16.8l-21.34-59.26c4.14-.52,7.37-1.91,9.65-4.19ZM1086.05,259.34h21.11c3.03,0,4.96.42,5.79,1.25.83.83,1.25,2.76,1.25,5.79v41.32c0,2.88-.42,4.77-1.25,5.68-.83.91-2.76,1.36-5.79,1.36h-21.11v-55.39Z"/>
    <path class="st1" d="M1220.56,250.37c-2.95-2.95-7.45-4.43-13.51-4.43h-44.72v141.2h44.72c6.05,0,10.56-1.48,13.51-4.43,2.95-2.95,4.43-7.45,4.43-13.51v-105.34c0-6.05-1.48-10.56-4.43-13.51ZM1209.33,297.03v69.69c0,2.88-.42,4.77-1.25,5.68-.83.91-2.76,1.36-5.79,1.36h-24.29v-114.42h24.29c3.03,0,4.96.42,5.79,1.25.83.83,1.25,2.76,1.25,5.79v30.65Z"/>
  </g>
</svg>